<svg xmlns="http://www.w3.org/2000/svg" viewBox="0 0 41.16 38.68"><defs><style>.cls-1{fill:#4e0a26;}</style></defs><g id="Capa_2" data-name="Capa 2"><g id="Capa_1-2" data-name="Capa 1"><path class="cls-1" d="M33.11,32.13A4,4,0,0,1,34,35.64a3.75,3.75,0,0,1-1.32,2.1,3.81,3.81,0,0,1-4.93,0A3.75,3.75,0,0,1,26.32,35a4,4,0,0,1,1.05-3H18.58c1.46,2.2,1.4,4.23-.73,5.87a3.67,3.67,0,0,1-4.41,0A3.72,3.72,0,0,1,11.8,35.2a4.16,4.16,0,0,1,1-3.17h-1a1,1,0,0,1-1-1.52L12,27a4.09,4.09,0,0,0,.13-.44h-.54a1.34,1.34,0,0,1-1.42-1.18c-.57-3.1-1.13-6.19-1.69-9.29Q7.57,10.93,6.6,5.79a.76.76,0,0,1,0-.16c-.18-1.1-.19-1.08-1.22-1.47C3.88,3.6,2.41,3,.94,2.44A1.49,1.49,0,0,1,0,1.28C-.09.78.58,0,1.16,0a2,2,0,0,1,.72.1L7.59,2.33A1.73,1.73,0,0,1,8.81,3.75c.48,2.81,1,5.6,1.53,8.4l1.71,9.37c.15.81.31,1.63.47,2.49H32.8c.67,0,.67,0,.87-.63q.86-2.62,1.7-5.25c.92-2.85,1.82-5.7,2.74-8.55.09-.27,0-.34-.24-.35-1.14,0-2.29-.08-3.43-.13l-6.28-.28L25.22,8.7l-7.51-.32-3.38-.16A1.31,1.31,0,0,1,13.07,7a1.25,1.25,0,0,1,1.29-1.25c1.75,0,3.49.13,5.23.2l3,.14,7.81.33,8.33.34a8.69,8.69,0,0,1,1.45.15,1.22,1.22,0,0,1,.88,1.67c-.68,2.09-1.34,4.2-2,6.29l-1.32,4.09c-.66,2-1.31,4.07-2,6.1-.06.19-.12.39-.19.58a1.31,1.31,0,0,1-1.39.92H15c-.65,0-.65,0-.86.61-.31.9-.63,1.79-1,2.75.18,0,.34,0,.49,0h20.2a3.23,3.23,0,0,1,.69.07,1,1,0,0,1,.85,1.08,1,1,0,0,1-1,.94c-.42,0-.84,0-1.26,0ZM32,34.76a1.82,1.82,0,0,0-1.76-1.83,1.82,1.82,0,1,0-.1,3.63A1.81,1.81,0,0,0,32,34.76Zm-18.17,0a1.81,1.81,0,1,0,1.83-1.84A1.84,1.84,0,0,0,13.85,34.77Z"/></g></g></svg>