<svg xmlns="http://www.w3.org/2000/svg" viewBox="0 0 24.34 29.11"><defs><style>.cls-1{fill:#4e0a26;}</style></defs><g id="Capa_2" data-name="Capa 2"><g id="Capa_1-2" data-name="Capa 1"><path class="cls-1" d="M0,24.09a17.27,17.27,0,0,0,24.34,0A13.16,13.16,0,0,0,0,24.09ZM12.17,0A6.93,6.93,0,1,0,19.1,6.94,7,7,0,0,0,12.17,0Z"/><path class="cls-1" d="M0,24.09a13.16,13.16,0,0,1,24.34,0A17.27,17.27,0,0,1,0,24.09Z"/><path class="cls-1" d="M12.17,0A6.93,6.93,0,1,1,5.24,6.92,6.94,6.94,0,0,1,12.17,0Z"/></g></g></svg>